<?xml version="1.0"?>
<svg xmlns="http://www.w3.org/2000/svg" xmlns:xlink="http://www.w3.org/1999/xlink" version="1.1" id="Capa_1" x="0px" y="0px" viewBox="0 0 512 512" style="enable-background:new 0 0 512 512;" xml:space="preserve" width="512px" height="512px" class=""><g><g>
	<g>
		<path d="M506.282,6.45C502.507,2.351,497.144,0,491.571,0H265.798c-5.573,0-10.935,2.351-14.71,6.45    c-3.776,4.099-5.68,9.636-5.223,15.19l24.193,293.916c-2.734-3.427-6.567-5.927-10.963-6.984V301    c0-42.188-57.304-98.015-110.396-125.544c-3.141-1.629-6.907-1.478-9.906,0.399c-2.998,1.875-4.783,5.195-4.694,8.731    c0.526,20.821-25.984,34.301-48.316,41.943c-36.717,12.565-62.114,45.76-65.062,84C14.59,313.95,10.429,320.495,10.429,328v22.706    c-5.968,3.465-10,9.911-10,17.294v124c0,11.028,8.972,20,20,20h244c11.028,0,20-8.972,20-20v-5.414    C287.62,501.133,300.723,512,315.954,512h125.462c16.669,0,30.797-13.013,32.163-29.625l7.073-85.914    c0.61-7.416-1.591-14.806-6.075-20.678c5.239-4.936,8.742-11.722,9.367-19.322l27.561-334.82    C511.962,16.086,510.058,10.55,506.282,6.45z M92.257,245.452c38.065-13.025,53.795-30.153,59.302-45.532    c47.853,28.404,87.537,73.465,87.537,101.08v7H41.093C44.841,279.407,64.451,254.967,92.257,245.452z M30.429,328h216.47    c0.708,0.159,1.441,0.25,2.197,0.25c0.756,0,1.489-0.091,2.197-0.25h3.136v20h-224V328z M264.429,492L264.429,492H20.428v-76    h105.318c5.522,0,10-4.477,10-10s-4.478-10-10-10H20.429v-28h244V492z M460.72,394.82l-7.073,85.914    c-0.52,6.317-5.892,11.266-12.23,11.266H315.954c-6.339,0-11.712-4.949-12.231-11.266l-7.072-85.914    c-0.231-2.818,0.696-5.516,2.611-7.595c1.916-2.08,4.527-3.225,7.355-3.225h144.136c2.827,0,5.439,1.146,7.355,3.225    C460.023,389.305,460.951,392.002,460.72,394.82z M464.011,354.821c-0.423,5.147-4.801,9.179-9.965,9.179h-3.293H306.617h-3.293    c-5.165,0-9.542-4.032-9.966-9.18L269.749,68h104.09c5.522,0,10-4.477,10-10s-4.478-10-10-10H268.102l-2.305-28h225.774    L464.011,354.821z" data-original="#000000" class="active-path" data-old_color="#000000" fill="#969696"/>
	</g>
</g><g>
	<g>
		<path d="M378.684,117.873c-40.874,0-74.127,33.253-74.127,74.127c0,40.874,33.253,74.127,74.127,74.127    s74.127-33.253,74.127-74.127S419.558,117.873,378.684,117.873z M378.684,246.127c-29.846,0-54.127-24.281-54.127-54.127    s24.281-54.127,54.127-54.127s54.127,24.281,54.127,54.127S408.53,246.127,378.684,246.127z" data-original="#000000" class="active-path" data-old_color="#000000" fill="#969696"/>
	</g>
</g><g>
	<g>
		<path d="M416.908,50.93c-1.859-1.86-4.439-2.93-7.069-2.93s-5.21,1.07-7.07,2.93c-1.86,1.86-2.93,4.44-2.93,7.07    c0,2.64,1.069,5.21,2.93,7.07c1.861,1.86,4.44,2.93,7.07,2.93c2.63,0,5.21-1.07,7.069-2.93c1.86-1.86,2.931-4.44,2.931-7.07    S418.769,52.79,416.908,50.93z" data-original="#000000" class="active-path" data-old_color="#000000" fill="#969696"/>
	</g>
</g><g>
	<g>
		<path d="M168.818,398.93c-1.859-1.86-4.439-2.93-7.07-2.93c-2.63,0-5.21,1.07-7.069,2.93c-1.86,1.86-2.931,4.44-2.931,7.07    s1.07,5.21,2.931,7.07c1.859,1.86,4.439,2.93,7.069,2.93c2.631,0,5.211-1.07,7.07-2.93c1.86-1.86,2.93-4.44,2.93-7.07    S170.679,400.79,168.818,398.93z" data-original="#000000" class="active-path" data-old_color="#000000" fill="#969696"/>
	</g>
</g></g> </svg>
