<?xml version="1.0" encoding="iso-8859-1"?>
<!-- Generator: Adobe Illustrator 16.0.0, SVG Export Plug-In . SVG Version: 6.00 Build 0)  -->
<!DOCTYPE svg PUBLIC "-//W3C//DTD SVG 1.1//EN" "http://www.w3.org/Graphics/SVG/1.1/DTD/svg11.dtd">
<svg version="1.1" id="Capa_1" xmlns="http://www.w3.org/2000/svg" xmlns:xlink="http://www.w3.org/1999/xlink" x="0px" y="0px"
	 width="950.016px" height="950.016px" viewBox="0 0 950.016 950.016" style="enable-background:new 0 0 950.016 950.016;"
	 xml:space="preserve">
<g>
	<g>
		<path d="M230.274,72.516l104.101,0.2c9.199,0,17.199,6.2,19.5,15.1l16.3,63.1c2.3,8.9,10.3,15.1,19.5,15.1h102.1
			c9.101,0,17-6.1,19.4-14.8l16.7-63.8c2.399-8.8,10.399-14.8,19.5-14.8c45.699,0.1,145.3,0.2,155,0.2c4.8,0,7.6,2.9,9.3,6.4
			c3.3,6.8,10,11.3,17.6,11.3h36.601c12.5,0,22.199-11.4,19.8-23.7c-13.101-69.6-83.4-66.8-83.4-66.8h-471.9
			c-11.1,0-20.2,9-20.2,20.2v32.2C210.175,63.516,219.175,72.516,230.274,72.516z"/>
		<path d="M200.274,950.016h479.2c20,0,36.3-16.2,36.3-36.3v-481.7c0-80.3-39.5-160.6-192.5-181.4l-12.1-32.2
			c-3.5-9.4-12.601-15.7-22.601-15.7h-98c-10.199,0-19.399,6.4-22.8,16.1l-11.3,31.8c-153,20.9-192.5,101.1-192.5,181.4v481.7
			C163.975,933.716,180.175,950.016,200.274,950.016z"/>
	</g>
</g>
<g>
</g>
<g>
</g>
<g>
</g>
<g>
</g>
<g>
</g>
<g>
</g>
<g>
</g>
<g>
</g>
<g>
</g>
<g>
</g>
<g>
</g>
<g>
</g>
<g>
</g>
<g>
</g>
<g>
</g>
</svg>
