<svg id="Layer_1" height="512" viewBox="0 0 512 512" width="512" xmlns="http://www.w3.org/2000/svg" data-name="Layer 1"><path d="m204.073 80h20.927v-14h-20.927a7 7 0 1 0 0 14z"/><path d="m211 126h90v42h-90z"/><path d="m324.029 86.481c13.987 9.355 25.043 6.677 30.727 1.054a20.959 20.959 0 0 0 .16-29.641c-10.611-10.725-26.263-2.123-30.808.77-.077.049-.155.1-.234.142l-23.333 13.594 23.193 13.9c.1.054.198.117.295.181z"/><path d="m406.736 277.2c-62.46-25.66-107.7-7.955-155.548 10.778-32.687 12.8-66.161 25.9-106.1 25.9a191.6 191.6 0 0 1 -48.188-6.29 163.3 163.3 0 0 0 -2.346 27.624 161.438 161.438 0 0 0 87.973 143.788h146.946a161.706 161.706 0 0 0 77.263-201.8z"/><path d="m246.085 274.952c45.056-17.638 91.522-35.815 152.41-15.709a162.352 162.352 0 0 0 -12.579-19.857c-20.009-27.066-47.346-47.386-79.105-57.386h-101.622c-31.759 10-59.1 30.32-79.1 57.386a160.123 160.123 0 0 0 -26.226 54.514c58.791 15.282 103.215-2.113 146.222-18.948z"/><path d="m232 33h48v79h-48z"/></svg>