<svg id="Capa_1" enable-background="new 0 0 511.707 511.707" height="512" viewBox="0 0 511.707 511.707" width="512" xmlns="http://www.w3.org/2000/svg"><path style="fill:#aaaaa" id="XMLID_247_" d="m54.516 246.221h99.868v265.486h-99.868z"/><path id="XMLID_248_" d="m156.99 216.221c23.4-14.974 39.515-39.781 43.869-68.294l4.547-29.778c4.296-28.143-3.878-56.669-22.427-78.265s-45.514-33.982-73.982-33.982h-9.093c-28.468 0-55.434 12.386-73.982 33.981s-26.724 50.123-22.428 78.265l4.547 29.778c4.346 28.465 20.997 53.35 45.229 68.294h103.72z"/><path id="XMLID_261_" d="m243.701 377.276h100.64v133.931h-100.64z"/><path id="XMLID_264_" d="m243.701 262.957h100.64v84.319h-100.64z"/><path id="XMLID_276_" d="m344.341 232.957v-56.158l-100.64-49.309v105.467z"/><path id="XMLID_322_" d="m504.109 104.698-41.991-104.698-41.99 104.698z"/><path id="XMLID_323_" d="m414.904 134.698h94.43v377.009h-94.43z"/></svg>