<svg height="512" viewBox="0 0 192 192" width="512" xmlns="http://www.w3.org/2000/svg"><path d="m112 49.814v-10.183a230.135 230.135 0 0 0 30.729-3.283c12.497-2.343 25.271-6.118 25.271-16.348s-12.774-14-25.271-16.348c-12.56-2.352-29.155-3.652-46.729-3.652s-34.169 1.3-46.729 3.652c-12.497 2.348-25.271 6.118-25.271 16.348s12.774 14.005 25.271 16.348a230.135 230.135 0 0 0 30.729 3.283v10.183a72 72 0 1 0 32 0zm-16 126.186a56 56 0 1 1 56-56 56.063 56.063 0 0 1 -56 56z"/><path d="m48.18 116h43.82v-43.82a48.059 48.059 0 0 0 -43.82 43.82z"/><path d="m100 167.82a48.059 48.059 0 0 0 43.82-43.82h-43.82z"/><path d="m100 72.18v43.82h43.82a48.059 48.059 0 0 0 -43.82-43.82z"/><path d="m92 167.82v-43.82h-43.82a48.059 48.059 0 0 0 43.82 43.82z"/></svg>