<?xml version="1.0"?>
<svg xmlns="http://www.w3.org/2000/svg" id="Layer_5" enable-background="new 0 0 64 64" height="512px" viewBox="0 0 64 64" width="512px"><g><path d="m50.608 35.463c.252-.777.392-1.603.392-2.463 0-3.35-2.072-6.221-5-7.411v-20.589c0-2.206-1.794-4-4-4-10.205 0-21.861 8.407-22.352 8.765-.865.628-1.433 1.556-1.6 2.612-.032.203-.035.406-.036.607h-.012v14.713l-2.641 3.962c-2.197 3.296-3.359 7.133-3.359 11.094v.247c0 11.028 8.972 20 20 20s20-8.972 20-20v-.247c0-2.51-.479-4.958-1.392-7.29zm-1.608-2.463c0 3.309-2.691 6-6 6s-6-2.691-6-6 2.691-6 6-6 6 2.691 6 6zm-17 28c-4.336 0-8-8.243-8-18 0-1.113.06-2.215.153-3.301 4.273-.247 8.74-.696 12.771-1.508.326.381.685.731 1.076 1.045v11.764l1.348-1.011c-1.259 6.503-4.185 11.011-7.348 11.011zm3-38h-6v-5c0-.552.449-1 1-1h4c.551 0 1 .448 1 1zm2 2c.551 0 1 .448 1 1v.765c-.718.577-1.329 1.276-1.813 2.064-1.345.107-2.745.171-4.187.171-2.303 0-4.313-.137-6-.347v-2.653c0-.552.449-1 1-1zm3 22v-6.589c.927.377 1.939.589 3 .589s2.073-.212 3-.589v6.589l-3-2.25zm3-22c-1.076 0-2.102.217-3.04.604-.196-1.466-1.441-2.604-2.96-2.604v-5c0-1.654-1.346-3-3-3h-4c-1.654 0-3 1.346-3 3v5c-1.654 0-3 1.346-3 3v2.343c-2.349-.441-3.739-1.011-4-1.42v-10.468c.602.348 1.289.545 2.001.545.851 0 1.663-.264 2.345-.761.101-.072 10.144-7.239 17.654-7.239.732 0 1.409-.212 2-.556v16.626c-.328-.042-.661-.07-1-.07zm-22.976-12.312c.083-.528.367-.992.801-1.307.47-.342 11.614-8.381 21.175-8.381 1.103 0 2 .897 2 2s-.897 2-2 2c-8.156 0-18.391 7.306-18.827 7.619-.855.625-2.167.417-2.792-.445-.313-.431-.44-.958-.357-1.486zm-3.001 20.081 2.496-3.744c3.387 1.905 11.357 1.975 12.481 1.975s2.217-.044 3.291-.107c-.184.672-.291 1.377-.291 2.107 0 1.21.278 2.353.76 3.382-6.913 1.295-15.061 1.558-21.11 1.607.506-1.843 1.296-3.605 2.373-5.22zm-3.023 10.231v-.247c0-.931.075-1.852.215-2.761 2.367-.016 5.072-.062 7.923-.19-.082 1.055-.138 2.122-.138 3.198 0 7.448 1.944 13.807 4.888 17.25-7.441-2.21-12.888-9.102-12.888-17.25zm36 0c0 8.134-5.427 15.017-12.847 17.239 2.179-2.558 3.809-6.752 4.5-11.979l1.347-1.01 5 3.75v-11.765c.491-.394.931-.847 1.317-1.345.444 1.579.683 3.206.683 4.863z" data-original="#000000" class="active-path" data-old_color="#000000" fill="#969696"/><path d="m39 33c0 2.206 1.794 4 4 4s4-1.794 4-4-1.794-4-4-4-4 1.794-4 4zm6 0c0 1.103-.897 2-2 2s-2-.897-2-2 .897-2 2-2 2 .897 2 2z" data-original="#000000" class="active-path" data-old_color="#000000" fill="#969696"/><circle cx="32" cy="20" r="1" data-original="#000000" class="active-path" data-old_color="#000000" fill="#969696"/><path d="m28 43c0-.33.004-.654.013-.974l-1.999-.053c-.01.338-.014.679-.014 1.027 0 3.806.556 7.379 1.608 10.335l1.884-.67c-.68-1.913-1.492-5.143-1.492-9.665z" data-original="#000000" class="active-path" data-old_color="#000000" fill="#969696"/><path d="m28.015 54.386c.347.829.729 1.581 1.136 2.234l1.697-1.059c-.35-.562-.683-1.217-.989-1.947z" data-original="#000000" class="active-path" data-old_color="#000000" fill="#969696"/></g> </svg>
